<?xml version="1.0" encoding="UTF-8" standalone="no"?>
<!DOCTYPE svg PUBLIC "-//W3C//DTD SVG 1.1//EN" "http://www.w3.org/Graphics/SVG/1.1/DTD/svg11.dtd">
<svg version="1.1" xmlns="http://www.w3.org/2000/svg" xmlns:xlink="http://www.w3.org/1999/xlink" preserveAspectRatio="xMidYMid meet" viewBox="0 0 15 9" width="15" height="9"><defs><path d="M14.27 7.8C14.44 7.97 14.71 7.97 14.87 7.8C15.04 7.63 15.04 7.37 14.87 7.2C14.17 6.49 8.51 0.83 7.8 0.12C7.63 -0.04 7.37 -0.04 7.2 0.12C6.49 0.83 0.83 6.49 0.13 7.2C0.04 7.28 0 7.39 0 7.5C0 7.61 0.04 7.72 0.13 7.8C0.29 7.96 0.56 7.96 0.73 7.8C1.18 7.35 3.44 5.09 7.5 1.03C11.56 5.09 13.82 7.35 14.27 7.8Z" id="aspeh4kHH"></path></defs><g><g><g><use xlink:href="#aspeh4kHH" opacity="1" fill="#ffffff" fill-opacity="1"></use><g><use xlink:href="#aspeh4kHH" opacity="1" fill-opacity="0" stroke="#000000" stroke-width="1" stroke-opacity="0"></use></g></g></g></g></svg>